<svg width="15" height="9" viewBox="0 0 15 9" fill="none" xmlns="http://www.w3.org/2000/svg">
<path d="M8.50822 8.00156L14.775 1.77138C14.9201 1.62729 15 1.43493 15 1.22983C15 1.02472 14.9201 0.832367 14.775 0.688271L14.3136 0.229462C14.013 -0.0690888 13.5243 -0.0690888 13.2241 0.229462L7.96164 5.46109L2.69332 0.223657C2.54826 0.0795603 2.35488 0 2.14868 0C1.94226 0 1.74888 0.0795603 1.60371 0.223657L1.14242 0.682466C0.997359 0.826676 0.917445 1.01892 0.917445 1.22402C0.917445 1.42913 0.997359 1.62148 1.14242 1.76558L7.41495 8.00156C7.56046 8.146 7.75476 8.22533 7.9613 8.22488C8.16864 8.22533 8.36282 8.146 8.50822 8.00156Z" fill="#394042"/>
</svg>
